BattleShip.2012.TS.XViD.AC3-ADTRG
 
http://www.imdb.com/title/tt1440129/

Source - 720p Cam SMY Thanks
Source - missing scenes - Twix Thanks
Source - LiNe Audio - Dragon Exclusive Thanks, awesome work bro

Complete name: BattleShip.2012.TS.XViD.AC3-ADTRG.avi
Format: AVI
Format/Info: Audio Video Interleave
File size: 1.53 GiB
Duration: 2h 1mn
Overall bit rate: 1 800 Kbps
Writing library: VirtualDub build 34703/release

Video
ID: 0
Format: MPEG-4 Visual
Codec ID: XVID
Bit rate: 1 598 Kbps
Width: 720 pixels
Height: 320 pixels
Display aspect ratio: 2.25:1
Frame rate: 30.000 fps
Stream size: 1.36 GiB (89%)

Audio
ID: 1
Format: AC-3
Bit rate: 192 Kbps
Channel(s): 2 channels
Channel positions: Front: L R
Stream size: 165 MiB (11%) Encoder - Jiinx


Poster:

 
http://i.imgur.com/Zl18M.jpg


Screens:

 
http://i.imgur.com/3clGl.jpg

 
http://i.imgur.com/jHn3c.jpg

 
http://i.imgur.com/Io8fD.jpg


ENJOY!